<svg width="700" height="500" viewBox="0 0 700 500" fill="none" xmlns="http://www.w3.org/2000/svg">
<rect width="700" height="500" fill="white"/>
<path fill-rule="evenodd" clip-rule="evenodd" d="M350 28.9868L450.741 96.7647V56.6111H513.318V138.866L630.194 217.5H521.724V212.5H613.806L350 35.0131L86.1944 212.5H175.77V217.5H69.8056L350 28.9868ZM508.318 135.502V61.6111H455.741V100.129L508.318 135.502Z" fill="#0066E6"/>
<path d="M102 340C98.3333 340 94.8667 339.667 91.6 339C88.3333 338.267 85.5 337.4 83.1 336.4C80.7 335.4 78.9333 334.467 77.8 333.6V315.7C81 317.5 85.0333 319.2 89.9 320.8C94.7667 322.333 100.167 323.1 106.1 323.1C108.5 323.1 110.267 322.8 111.4 322.2C112.6 321.533 113.2 320.4 113.2 318.8C113.2 317.067 111.867 315.633 109.2 314.5C106.6 313.3 102.467 311.833 96.8 310.1C92.4 308.7 88.6333 307.167 85.5 305.5C82.4333 303.767 80.0667 301.633 78.4 299.1C76.8 296.5 76 293.2 76 289.2C76 285.067 77.0667 281.333 79.2 278C81.3333 274.667 84.6667 272.033 89.2 270.1C93.7333 268.167 99.5333 267.2 106.6 267.2C108.733 267.2 111 267.3 113.4 267.5C115.867 267.633 117.833 267.833 119.3 268.1L130.6 276.4L126.7 288.6L103 282.1C100.267 282.1 98.2333 282.667 96.9 283.8C95.6333 284.933 95 286.3 95 287.9C95 289.833 96.1 291.367 98.3 292.5C100.5 293.633 103.667 294.767 107.8 295.9C114.333 297.7 119.4 299.7 123 301.9C126.6 304.1 129.133 306.6 130.6 309.4C132.067 312.133 132.8 315.233 132.8 318.7C132.8 325.1 130.233 330.267 125.1 334.2C119.967 338.067 112.267 340 102 340Z" fill="#0066E6"/>
<path d="M144.82 339V284.3L142.82 274.2L144.82 268.2H176.82C181.687 268.2 186.054 268.967 189.92 270.5C193.854 271.967 196.954 274.5 199.22 278.1C201.554 281.633 202.72 286.533 202.72 292.8C202.72 299.067 201.487 304.033 199.02 307.7C196.554 311.3 193.12 313.867 188.72 315.4C184.387 316.933 179.42 317.7 173.82 317.7H162.82V322.9L163.82 332.9L162.82 339H144.82ZM162.82 302H172.62C176.087 302 178.854 301.367 180.92 300.1C182.987 298.767 184.02 296.333 184.02 292.8C184.02 290.333 183.52 288.5 182.52 287.3C181.52 286.033 180.12 285.2 178.32 284.8C176.587 284.4 174.554 284.2 172.22 284.2H161.82L162.82 302Z" fill="#0066E6"/>
<path d="M215.719 339V284.3L213.719 274.2L215.719 268.2H247.719C252.585 268.2 256.952 268.967 260.819 270.5C264.752 271.967 267.852 274.5 270.119 278.1C272.452 281.633 273.619 286.533 273.619 292.8C273.619 298.467 272.585 303.067 270.519 306.6C268.452 310.067 265.585 312.667 261.919 314.4L262.919 315.5L272.819 327.9L278.519 333V339H256.019L242.019 317.7H233.719V322.9L234.719 332.9L233.719 339H215.719ZM233.719 302H243.519C246.985 302 249.752 301.367 251.819 300.1C253.885 298.767 254.919 296.333 254.919 292.8C254.919 290.333 254.419 288.5 253.419 287.3C252.419 286.033 251.019 285.2 249.219 284.8C247.485 284.4 245.452 284.2 243.119 284.2H232.719L233.719 302Z" fill="#0066E6"/>
<path d="M284.596 339L281.496 333L317.696 284.1H284.596V268.2H342.096V280L310.996 323.1H314.096L342.296 321.1V339H284.596Z" fill="#0066E6"/>
<path d="M353.316 339L351.316 333L353.316 323V268.2H402.816L407.816 271.2L401.216 285.2L392.216 284.2H371.316V295.2H398.216V310.7H386.416L371.316 309.7V323H401.216L413.116 332.6L407.216 339H353.316Z" fill="#0066E6"/>
<path d="M422.164 339V284.3L420.164 274.3L422.164 268.2H451.964C456.764 268.2 461.364 268.667 465.764 269.6C470.231 270.467 474.197 272.133 477.664 274.6C481.197 277.067 483.964 280.6 485.964 285.2C488.031 289.8 489.064 295.767 489.064 303.1C489.064 310.433 488.031 316.467 485.964 321.2C483.897 325.867 481.097 329.5 477.564 332.1C474.031 334.7 470.031 336.5 465.564 337.5C461.164 338.5 456.631 339 451.964 339H422.164ZM440.364 323H451.964C457.831 323 462.331 321.467 465.464 318.4C468.597 315.267 470.164 310.167 470.164 303.1C470.164 296.033 468.564 291.133 465.364 288.4C462.231 285.6 457.764 284.2 451.964 284.2H440.364V323Z" fill="#0066E6"/>
<path d="M491.043 339L495.843 322.1V309.4L503.243 306.4L516.243 268.3H542.143L558.243 313.1L565.943 327.3V339H548.243L543.243 323H514.143L509.843 339H491.043ZM520.743 307.6H537.743L530.143 284.7H528.043L520.743 307.6Z" fill="#0066E6"/>
<path d="M590.998 340C589.065 340 587.232 339.9 585.498 339.7C583.832 339.5 582.298 339.267 580.898 339L567.898 333L573.898 317.8L592.398 324.2C596.532 324.2 599.498 322.967 601.298 320.5C603.098 317.967 603.998 314.167 603.998 309.1V284.2L601.798 274.2L602.898 268.2H621.798L621.898 312.3C621.898 321.233 619.232 328.1 613.898 332.9C608.565 337.633 600.932 340 590.998 340Z" fill="#0066E6"/>
<path d="M33 447.82C30.1615 447.82 27.5052 447.534 25.0312 446.961C22.5573 446.388 19.9271 445.503 17.1406 444.305L17.0625 434.266H22.8828L24.3281 440.32C27.0885 441.466 29.9792 442.039 33 442.039C36.125 442.039 38.3646 441.44 39.7188 440.242C41.0729 439.044 41.75 437.56 41.75 435.789C41.75 434.122 41.0599 432.716 39.6797 431.57C38.3255 430.398 35.8516 429.409 32.2578 428.602C27.1536 427.43 23.3906 425.867 20.9688 423.914C18.5729 421.935 17.375 419.305 17.375 416.023C17.375 413.732 18.0391 411.688 19.3672 409.891C20.6953 408.068 22.5443 406.622 24.9141 405.555C27.2839 404.487 30.0443 403.953 33.1953 403.953C36.3984 403.953 39.1328 404.318 41.3984 405.047C43.6901 405.776 45.6823 406.753 47.375 407.977L47.7656 417.625H41.9844L40.7344 412C39.8229 411.323 38.7422 410.802 37.4922 410.438C36.2422 410.073 34.8099 409.891 33.1953 409.891C30.7995 409.891 28.8464 410.451 27.3359 411.57C25.8516 412.69 25.1094 414.096 25.1094 415.789C25.1094 416.779 25.3177 417.638 25.7344 418.367C26.1771 419.096 27.0104 419.76 28.2344 420.359C29.4583 420.932 31.2552 421.505 33.625 422.078C39.5104 423.458 43.612 425.216 45.9297 427.352C48.2734 429.487 49.4453 432.117 49.4453 435.242C49.4453 438.81 48.1172 441.805 45.4609 444.227C42.8307 446.622 38.6771 447.82 33 447.82Z" fill="#0066E6"/>
<path d="M70.8125 447L59.6797 410.242L54.9531 409.695V404.734H72.4141V409.695L67.2188 410.555L73.0391 431.609L74.3672 436.609H74.6016L76.3203 431.609L85.5 404.734H91.9844L100.734 431.531L102.609 437.469H102.844L104.68 431.531L110.578 410.516L105.266 409.695V404.734H122.336V409.695L117.648 410.359L106.711 447H99.4062L90.8516 421.609L88.8203 414.812L88.5859 414.852L86.5938 421.609L77.4141 447H70.8125Z" fill="#0066E6"/>
<path d="M145.383 447.82C141.477 447.82 138.104 446.909 135.266 445.086C132.453 443.237 130.279 440.698 128.742 437.469C127.206 434.214 126.438 430.503 126.438 426.336V425.477C126.438 421.31 127.206 417.612 128.742 414.383C130.279 411.128 132.453 408.576 135.266 406.727C138.104 404.878 141.451 403.953 145.305 403.953C149.211 403.953 152.57 404.878 155.383 406.727C158.221 408.576 160.409 411.115 161.945 414.344C163.482 417.573 164.25 421.284 164.25 425.477V426.336C164.25 430.529 163.482 434.253 161.945 437.508C160.409 440.737 158.234 443.263 155.422 445.086C152.609 446.909 149.263 447.82 145.383 447.82ZM145.383 441.805C149.029 441.805 151.802 440.346 153.703 437.43C155.604 434.513 156.555 430.815 156.555 426.336V425.477C156.555 422.508 156.125 419.865 155.266 417.547C154.432 415.203 153.182 413.367 151.516 412.039C149.849 410.685 147.779 410.008 145.305 410.008C142.857 410.008 140.799 410.685 139.133 412.039C137.466 413.367 136.216 415.203 135.383 417.547C134.549 419.865 134.133 422.508 134.133 425.477V426.336C134.133 430.815 135.07 434.513 136.945 437.43C138.846 440.346 141.659 441.805 145.383 441.805Z" fill="#0066E6"/>
<path d="M169.484 464.07C168.651 464.07 167.896 464.005 167.219 463.875C166.542 463.771 165.839 463.602 165.109 463.367L165.617 457.508C165.982 457.638 166.594 457.755 167.453 457.859C168.339 457.964 169.016 458.016 169.484 458.016C171.021 458.016 172.232 457.339 173.117 455.984C174.029 454.656 174.484 452.82 174.484 450.477V410.789L168.117 409.695V404.734H182.18V450.477C182.18 454.826 181.06 458.172 178.82 460.516C176.581 462.885 173.469 464.07 169.484 464.07ZM174.094 394.305V386.062H182.18V394.305H174.094Z" fill="#0066E6"/>
<path d="M209.992 447.82C206.086 447.82 202.688 446.935 199.797 445.164C196.906 443.367 194.667 440.88 193.078 437.703C191.516 434.526 190.734 430.854 190.734 426.688V424.969C190.734 420.958 191.555 417.378 193.195 414.227C194.862 411.049 197.062 408.549 199.797 406.727C202.557 404.878 205.565 403.953 208.82 403.953C214.497 403.953 218.794 405.672 221.711 409.109C224.654 412.547 226.125 417.13 226.125 422.859V427.664H198.703L198.586 427.859C198.664 431.922 199.693 435.268 201.672 437.898C203.651 440.503 206.424 441.805 209.992 441.805C212.596 441.805 214.875 441.44 216.828 440.711C218.807 439.956 220.513 438.927 221.945 437.625L224.953 442.625C223.443 444.083 221.438 445.32 218.938 446.336C216.464 447.326 213.482 447.82 209.992 447.82ZM198.938 421.648H218.43V420.633C218.43 417.612 217.622 415.086 216.008 413.055C214.393 411.023 211.997 410.008 208.82 410.008C206.242 410.008 204.042 411.102 202.219 413.289C200.396 415.451 199.276 418.172 198.859 421.453L198.938 421.648Z" fill="#0066E6"/>
<path d="M252.062 447V442.078L258.43 440.984V410.789L252.062 409.695V404.734H265.344L265.852 410.242C267.206 408.237 268.951 406.688 271.086 405.594C273.221 404.5 275.695 403.953 278.508 403.953C281.32 403.953 283.729 404.604 285.734 405.906C287.766 407.208 289.289 409.161 290.305 411.766C291.633 409.37 293.391 407.469 295.578 406.062C297.766 404.656 300.318 403.953 303.234 403.953C307.557 403.953 310.969 405.438 313.469 408.406C315.969 411.349 317.219 415.789 317.219 421.727V440.984L323.586 442.078V447H303.117V442.078L309.484 440.984V421.648C309.484 417.482 308.768 414.539 307.336 412.82C305.904 411.076 303.781 410.203 300.969 410.203C298.286 410.203 296.125 411.154 294.484 413.055C292.87 414.93 291.932 417.299 291.672 420.164V440.984L298.039 442.078V447H277.609V442.078L283.977 440.984V421.648C283.977 417.69 283.234 414.799 281.75 412.977C280.292 411.128 278.169 410.203 275.383 410.203C273.039 410.203 271.112 410.685 269.602 411.648C268.091 412.612 266.932 413.966 266.125 415.711V440.984L272.492 442.078V447H252.062Z" fill="#0066E6"/>
<path d="M329.055 447V442.078L335.422 440.984V410.789L329.055 409.695V404.734H343.117V440.984L349.484 442.078V447H329.055ZM335.031 394.305V386.062H343.117V394.305H335.031Z" fill="#0066E6"/>
<path d="M374.055 447.82C370.148 447.82 366.75 446.935 363.859 445.164C360.969 443.367 358.729 440.88 357.141 437.703C355.578 434.526 354.797 430.854 354.797 426.688V424.969C354.797 420.958 355.617 417.378 357.258 414.227C358.924 411.049 361.125 408.549 363.859 406.727C366.62 404.878 369.628 403.953 372.883 403.953C378.56 403.953 382.857 405.672 385.773 409.109C388.716 412.547 390.188 417.13 390.188 422.859V427.664H362.766L362.648 427.859C362.727 431.922 363.755 435.268 365.734 437.898C367.714 440.503 370.487 441.805 374.055 441.805C376.659 441.805 378.938 441.44 380.891 440.711C382.87 439.956 384.576 438.927 386.008 437.625L389.016 442.625C387.505 444.083 385.5 445.32 383 446.336C380.526 447.326 377.544 447.82 374.055 447.82ZM363 421.648H382.492V420.633C382.492 417.612 381.685 415.086 380.07 413.055C378.456 411.023 376.06 410.008 372.883 410.008C370.305 410.008 368.104 411.102 366.281 413.289C364.458 415.451 363.339 418.172 362.922 421.453L363 421.648Z" fill="#0066E6"/>
<path d="M413.547 447.82C410.708 447.82 408.052 447.534 405.578 446.961C403.104 446.388 400.474 445.503 397.688 444.305L397.609 434.266H403.43L404.875 440.32C407.635 441.466 410.526 442.039 413.547 442.039C416.672 442.039 418.911 441.44 420.266 440.242C421.62 439.044 422.297 437.56 422.297 435.789C422.297 434.122 421.607 432.716 420.227 431.57C418.872 430.398 416.398 429.409 412.805 428.602C407.701 427.43 403.938 425.867 401.516 423.914C399.12 421.935 397.922 419.305 397.922 416.023C397.922 413.732 398.586 411.688 399.914 409.891C401.242 408.068 403.091 406.622 405.461 405.555C407.831 404.487 410.591 403.953 413.742 403.953C416.945 403.953 419.68 404.318 421.945 405.047C424.237 405.776 426.229 406.753 427.922 407.977L428.312 417.625H422.531L421.281 412C420.37 411.323 419.289 410.802 418.039 410.438C416.789 410.073 415.357 409.891 413.742 409.891C411.346 409.891 409.393 410.451 407.883 411.57C406.398 412.69 405.656 414.096 405.656 415.789C405.656 416.779 405.865 417.638 406.281 418.367C406.724 419.096 407.557 419.76 408.781 420.359C410.005 420.932 411.802 421.505 414.172 422.078C420.057 423.458 424.159 425.216 426.477 427.352C428.82 429.487 429.992 432.117 429.992 435.242C429.992 438.81 428.664 441.805 426.008 444.227C423.378 446.622 419.224 447.82 413.547 447.82Z" fill="#0066E6"/>
<path d="M436.906 447V441.609L459.914 410.672H444.172L443.195 417.781H437.414V404.734H469.445V409.969L446.203 441.141H464.211L465.227 433.992H470.969V447H436.906Z" fill="#0066E6"/>
<path d="M476.281 447V442.078L482.648 440.984V392.117L476.281 391.023V386.062H490.344V425.32L505.305 410.438L505.5 410.203L500.969 409.695V404.734H519.172V409.695L513.742 410.711L501.867 422.664L516.438 441.141L522.531 442.078V447H503.43V442.078L507.727 441.57L507.609 441.414L496.906 427.625L490.344 434.227V440.984L496.711 442.078V447H476.281Z" fill="#0066E6"/>
<path d="M539.875 447.82C535.474 447.82 532.128 446.753 529.836 444.617C527.544 442.456 526.398 439.422 526.398 435.516C526.398 431.505 528.039 428.289 531.32 425.867C534.602 423.419 539.159 422.195 544.992 422.195H552.531V418.055C552.531 415.503 551.75 413.523 550.188 412.117C548.651 410.711 546.477 410.008 543.664 410.008C541.893 410.008 540.357 410.229 539.055 410.672C537.753 411.089 536.568 411.674 535.5 412.43L534.68 418.328H528.742V408.641C532.57 405.516 537.583 403.953 543.781 403.953C548.911 403.953 552.935 405.177 555.852 407.625C558.768 410.073 560.227 413.576 560.227 418.133V438.484C560.227 439.031 560.227 439.565 560.227 440.086C560.253 440.607 560.292 441.128 560.344 441.648L564.445 442.078V447H553.391C552.948 444.865 552.674 442.924 552.57 441.18C551.086 443.081 549.224 444.669 546.984 445.945C544.771 447.195 542.401 447.82 539.875 447.82ZM541.008 441.375C543.56 441.375 545.891 440.763 548 439.539C550.109 438.315 551.62 436.844 552.531 435.125V427.469H544.719C541.177 427.469 538.521 428.315 536.75 430.008C534.979 431.701 534.094 433.589 534.094 435.672C534.094 439.474 536.398 441.375 541.008 441.375Z" fill="#0066E6"/>
<path d="M570.422 447V442.078L576.789 440.984V410.789L570.422 409.695V404.734H583.664L584.211 411.023C585.617 408.784 587.375 407.052 589.484 405.828C591.62 404.578 594.042 403.953 596.75 403.953C601.307 403.953 604.836 405.294 607.336 407.977C609.836 410.633 611.086 414.747 611.086 420.32V440.984L617.453 442.078V447H597.023V442.078L603.391 440.984V420.477C603.391 416.753 602.648 414.109 601.164 412.547C599.706 410.984 597.466 410.203 594.445 410.203C592.232 410.203 590.266 410.737 588.547 411.805C586.854 412.872 585.5 414.331 584.484 416.18V440.984L590.852 442.078V447H570.422Z" fill="#0066E6"/>
<path d="M622.648 447V442.078L629.016 440.984V410.789L622.648 409.695V404.734H636.711V440.984L643.078 442.078V447H622.648ZM628.625 394.305V386.062H636.711V394.305H628.625Z" fill="#0066E6"/>
<path d="M667.648 447.82C663.742 447.82 660.344 446.935 657.453 445.164C654.562 443.367 652.323 440.88 650.734 437.703C649.172 434.526 648.391 430.854 648.391 426.688V424.969C648.391 420.958 649.211 417.378 650.852 414.227C652.518 411.049 654.719 408.549 657.453 406.727C660.214 404.878 663.221 403.953 666.477 403.953C672.154 403.953 676.451 405.672 679.367 409.109C682.31 412.547 683.781 417.13 683.781 422.859V427.664H656.359L656.242 427.859C656.32 431.922 657.349 435.268 659.328 437.898C661.307 440.503 664.081 441.805 667.648 441.805C670.253 441.805 672.531 441.44 674.484 440.711C676.464 439.956 678.169 438.927 679.602 437.625L682.609 442.625C681.099 444.083 679.094 445.32 676.594 446.336C674.12 447.326 671.138 447.82 667.648 447.82ZM656.594 421.648H676.086V420.633C676.086 417.612 675.279 415.086 673.664 413.055C672.049 411.023 669.654 410.008 666.477 410.008C663.898 410.008 661.698 411.102 659.875 413.289C658.052 415.451 656.932 418.172 656.516 421.453L656.594 421.648Z" fill="#0066E6"/>
</svg>
